<svg  viewBox="0 0 512 512.00083"  xmlns="http://www.w3.org/2000/svg"><path d="m335.09375 56.296875 46.667969-17c-4.078125-3.765625-8.667969-7.0625-13.710938-9.769531-12.902343-6.921875-27.300781-9.371094-41.46875-7.1875-5.171875-5.808594-11.351562-10.699219-18.25-14.402344-12.667969-6.796875-26.738281-9.140625-40.234375-7.367188l52.488282 62.796876c4.503906-2.800782 9.34375-5.1875 14.507812-7.070313zm0 0"/><path d="m76.253906 259.074219h25.59375l5.34375 60.207031c2.589844 24.351562 26.25 40.679688 49.933594 34.457031l50.296875-13.210937v50.75l-16.988281 5.445312 115.277344 115.277344h206.285156l-36.523438-52.820312c-12.089844-21.242188-28.382812-39.796876-47.878906-54.539063l-89.636719-67.757813v-75.929687c7.253907-5.175781 13.03125-12.316406 16.605469-20.640625 21.085938-3.46875 38.054688-19.792969 43.222656-41.015625.632813-2.109375 1.734375-3.890625 1.734375-3.890625l-55.4375 20.199219-8.980469 3.269531-16.132812 5.878906c-1.710938.621094-3.5.929688-5.28125.929688-2.664062 0-5.308594-.6875-7.671875-2.039063-3.945313-2.257812-6.695313-6.136719-7.515625-10.609375l-.980469-5.332031-11.933593-64.914063c-3.914063-21.308593 1.265624-42.347656 13.082031-58.867187l-60.628907-72.542969c-10.914062-7.328125-23.875-11.37499975-37.199218-11.37499975-14.636719 0-28.480469 4.65234375-39.933594 13.27343775-8.28125-3.03125-17.128906-4.394532-26.046875-3.980469-34.621094 1.613281-62.511719 30.023437-63.492187 64.679687-.003907.128907-.007813.261719-.011719.390626-.382813 17.113281 9.160156 32.671874 23.953125 40.566406-3.640625 10.496094-5.78125 22.0625-6.199219 34.699218-.003906.179688-.011719.355469-.015625.535157-.039062 1.328125-.066406 2.664062-.066406 4.015625l-7.363282 30.296875-15.128906 62.230469c-1.527344 6.292968 3.238282 12.363281 9.71875 12.363281zm65.082032-83.324219h10.367187c8.285156 0 15 6.714844 15 15s-6.714844 15-15 15h-10.367187c-8.285157 0-15-6.714844-15-15s6.714843-15 15-15zm0 0"/><path d="m91.425781 430.140625c-25.128906 11.9375-47.257812 29.582031-64.535156 51.664063l-26.890625 30.195312h173.285156zm0 0"/><path d="m158.308594 407.023438-36.027344 11.546874 93.429688 93.429688h47.574218zm0 0"/><path d="m315.09375 137.367188c-4.179688-22.730469 8.550781-44.972657 30.265625-52.878907l136.480469-49.714843c1.386718 10.230468 2.71875 21.992187.160156 28.59375-3.664062 9.445312-9.976562 16.429687-18.253906 20.199218l-21.121094 9.621094.867188 15.375c1.585937 9.03125.773437 18.054688-2.347657 26.097656-4.035156 10.40625-11.1875 17.734375-20.683593 21.191406l-95.570313 34.816407zm0 0"/></svg>